<svg width="13" height="12" viewBox="0 0 13 12" fill="none" xmlns="http://www.w3.org/2000/svg">
<path d="M12.2049 2.03132L7.10099 10.7623C6.89523 11.1143 6.38072 11.1143 6.17496 10.7623L1.07102 2.03132C0.865257 1.67937 1.12251 1.23926 1.53403 1.23926L11.7419 1.23926C12.1534 1.23926 12.4107 1.67914 12.2049 2.03132Z" fill="#333333"/>
<path d="M7.10045 10.7623L12.2044 2.03134C12.2351 1.97867 12.2525 1.92419 12.2637 1.86949L7.32933 10.3102C7.12357 10.6622 6.60905 10.6622 6.40329 10.3102L1.29935 1.57925C1.25335 1.50036 1.23343 1.4174 1.23046 1.33557C1.01577 1.48386 0.923079 1.77884 1.07048 2.03134L6.17442 10.7623C6.38018 11.1143 6.89469 11.1143 7.10045 10.7623Z" fill="#333333"/>
<path d="M12.2049 2.03132L7.10099 10.7623C6.89523 11.1143 6.38072 11.1143 6.17496 10.7623L1.07102 2.03132C0.865257 1.67937 1.12251 1.23926 1.53403 1.23926L11.7419 1.23926C12.1534 1.23926 12.4107 1.67914 12.2049 2.03132Z" stroke="#333333" stroke-miterlimit="10"/>
</svg>
