<svg width="12" height="14" viewBox="0 0 12 14" fill="none" xmlns="http://www.w3.org/2000/svg">
<path d="M9.74309 1.5198L1.01211 6.62374C0.660159 6.8295 0.660159 7.34401 1.01211 7.54977L9.74309 12.6537C10.095 12.8595 10.5352 12.6022 10.5352 12.1907L10.5352 1.98281C10.5352 1.57129 10.0953 1.31404 9.74309 1.5198Z" fill="#333333"/>
<path d="M1.01271 6.62379L9.74369 1.51985C9.79636 1.48918 9.85083 1.47179 9.90554 1.46057L1.46479 6.39492C1.11284 6.60068 1.11284 7.11519 1.46479 7.32095L10.1958 12.4249C10.2747 12.4709 10.3576 12.4908 10.4395 12.4938C10.2912 12.7085 9.99618 12.8012 9.74369 12.6538L1.01271 7.54982C0.660753 7.34407 0.660753 6.82955 1.01271 6.62379Z" fill="#333333"/>
<path d="M9.74309 1.5198L1.01211 6.62374C0.66016 6.8295 0.66016 7.34401 1.01211 7.54977L9.74309 12.6537C10.095 12.8595 10.5352 12.6022 10.5352 12.1907L10.5352 1.98281C10.5352 1.57129 10.0953 1.31404 9.74309 1.5198Z" stroke="#333333" stroke-miterlimit="10"/>
</svg>
