<svg width="8" height="8" viewBox="0 0 8 8" fill="none" xmlns="http://www.w3.org/2000/svg">
<path d="M1.46322 0.911422L6.56929 3.82292C6.77512 3.9403 6.77512 4.2338 6.56929 4.35117L1.46322 7.26267C1.25739 7.38005 1 7.2333 1 6.99855L1 1.17555C1 0.940799 1.25725 0.794048 1.46322 0.911422Z" fill="#333333"/>
<path d="M6.56961 3.823L1.46354 0.911501C1.43274 0.894006 1.40088 0.884083 1.36889 0.877686L6.30522 3.69244C6.51105 3.80982 6.51105 4.10332 6.30522 4.22069L1.19915 7.13219C1.15301 7.15843 1.1045 7.16979 1.05664 7.17149C1.14336 7.29396 1.31588 7.34683 1.46354 7.26275L6.56961 4.35125C6.77544 4.23388 6.77544 3.94038 6.56961 3.823Z" fill="#333333"/>
<path d="M1.46322 0.911422L6.56929 3.82292C6.77512 3.9403 6.77512 4.2338 6.56929 4.35117L1.46322 7.26267C1.25739 7.38005 1 7.2333 1 6.99855L1 1.17555C1 0.940799 1.25725 0.794048 1.46322 0.911422Z" stroke="#333333" stroke-miterlimit="10"/>
</svg>
