<svg width="13" height="12" viewBox="0 0 13 12" fill="none" xmlns="http://www.w3.org/2000/svg">
<path d="M12.2049 10.1884L7.10099 1.45742C6.89523 1.10547 6.38072 1.10547 6.17496 1.45742L1.07102 10.1884C0.865257 10.5404 1.12251 10.9805 1.53403 10.9805L11.7419 10.9805C12.1534 10.9805 12.4107 10.5406 12.2049 10.1884Z" fill="#333333"/>
<path d="M7.10045 1.45741L12.2044 10.1884C12.2351 10.2411 12.2525 10.2955 12.2637 10.3502L7.32933 1.9095C7.12357 1.55754 6.60905 1.55754 6.40329 1.9095L1.29935 10.6405C1.25335 10.7194 1.23343 10.8023 1.23046 10.8842C1.01577 10.7359 0.923079 10.4409 1.07048 10.1884L6.17442 1.45741C6.38018 1.10545 6.89469 1.10545 7.10045 1.45741Z" fill="#333333"/>
<path d="M12.2049 10.1884L7.10099 1.45742C6.89523 1.10547 6.38072 1.10547 6.17496 1.45742L1.07102 10.1884C0.865257 10.5404 1.12251 10.9805 1.53403 10.9805L11.7419 10.9805C12.1534 10.9805 12.4107 10.5406 12.2049 10.1884Z" stroke="#333333" stroke-miterlimit="10"/>
</svg>
